<?xml version="1.0" encoding="UTF-8" standalone="no"?>
<svg
    xmlns="http://www.w3.org/2000/svg"
    xmlns:svg="http://www.w3.org/2000/svg"
    version="1.0"
    width="189.97"
    height="45"
    viewBox="0 0 189.97 45"
>
    <rect
        x="-75.014999"
        y="-107.36186"
        width="100%"
        height="100%"
        fill="#feffff"
        fill-opacity="0" />
    <g
        style="fill:#000000"
        transform="translate(0,-3.5318946)">
        <g
            transform="translate(0,9.5281616)">
            <g
                data-gra="path-name"
                fill="#000000"
                id="g6">
                <path
                    d="M 16.7,-35.28 H 5.17 L 0,-30.09 V -5.17 L 5.17,0 H 16.7 l 5.17,-5.17 v -6.86 h -6.74 v 5.27 H 6.76 v -21.76 h 8.37 v 5.27 h 6.74 v -6.84 z"
                    transform="translate(0,35.283733)"
                    id="path4" />
            </g>
        </g>
        <g
            transform="translate(25,9.5281616)">
            <g
                data-gra="path-name"
                fill="#000000"
                id="g12">
                <path
                    d="m 15.13,-28.52 v 8.37 H 6.76 v -8.37 z m 1.57,-6.76 H 0 V 0 h 6.76 v -13.42 h 8.37 V 0 h 6.74 v -15.79 l -1.84,-1.79 1.84,-1.84 v -10.67 z"
                    transform="translate(0,35.283733)"
                    id="path10" />
            </g>
        </g>
        <g
            id="g43"
            transform="translate(50)">
            <g
                id="g39"
                transform="translate(0,6)">
                <rect
                    fill="#000000"
                    fill-opacity="0"
                    stroke-width="2"
                    x="0"
                    y="0"
                    width="42.340481"
                    height="42.340057"
                    class="image-rect"
                    id="rect16" />
                <svg
                    x="0"
                    y="0"
                    width="42.340481"
                    height="42.340057"
                    filtersec="colorsf7180103937"
                    class="image-svg-svg primary"
                    style="overflow:visible"
                    version="1.1"
                    id="svg26">
                    <svg
                        viewBox="-0.0049972534 0.0020000001 100.002 100.001"
                        version="1.1"
                        id="svg24"
                        width="100%"
                        height="100%">
                        <g
                            fill="#000000"
                            id="g22">
                            <path
                                d="M 50,0.002 49.455,1.085 -0.005,100.003 50,68.753 99.997,100.003 Z M 50,2.713 96.989,96.691 50,67.318 3.011,96.684 50,2.714 Z"
                                id="path18" />
                            <path
                                d="M 73.363,82.043 49.945,67.394 49.952,35.074 c 0,-17.774 0.027,-32.34 0.062,-32.374 0.034,-0.035 10.64,21.107 23.57,46.975 12.93,25.868 23.488,47.016 23.398,47.01 -0.083,0 -10.736,-6.583 -23.619,-14.642 z"
                                id="path20" />
                        </g>
                    </svg>
                </svg>
            </g>
        </g>
        <g
            transform="translate(96,9.5281616)"
            id="g51">
            <g
                data-gra="path-name"
                fill="#000000"
                id="g49">
                <path
                    d="M 19.8,-35.28 H 0 v 6.76 H 6.51 V 0 h 6.76 v -28.52 h 6.53 z"
                    transform="translate(0,35.283733)"
                    id="path47" />
            </g>
        </g>
        <g
            transform="translate(119,9.5281616)"
            id="g57">
            <g
                data-gra="path-name"
                fill="#000000"
                id="g55">
                <path
                    d="M 17.93,-35.28 H 0 V 0 H 17.93 V -6.76 H 6.76 v -7.51 h 8.93 v -6.74 H 6.76 v -7.51 h 11.17 z"
                    transform="translate(0,35.283733)"
                    id="path53" />
            </g>
        </g>
        <g
            transform="translate(140,9.5281616)"
            id="g63">
            <g
                data-gra="path-name"
                fill="#000000"
                id="g61">
                <path
                    d="m 15.13,-28.52 v 8.37 H 6.76 v -8.37 z m 1.57,-6.76 H 0 V 0 h 6.76 v -13.42 h 8.37 V 0 h 6.74 v -15.79 l -1.84,-1.79 1.84,-1.84 v -10.67 z"
                    transform="translate(0,35.283733)"
                    id="path59" />
            </g>
        </g>
        <g
            transform="translate(165,9.5281616)"
            id="g69">
            <g
                data-gra="path-name"
                fill="#000000"
                id="g67">
                <path
                    d="M 18.28,-35.28 12.31,-20.81 6.68,-35.28 H 0 l 8.85,22.69 V 0 h 6.74 v -12.59 l 9.38,-22.69 z"
                    transform="translate(0,35.283733)"
                    id="path65" />
            </g>
        </g>
    </g>
</svg>